# xmcd CD database file
#
# Track frame offsets:
#	150
#	22271
#	40719
#	63130
#	74492
#	91231
#	118842
#	153735
#	164340
#	218933
#	239222
#
# Disc length: 3593 seconds
#
# Revision: 2
# Processed by: cddbd v1.4b42PL0 Copyright (c) Steve Scherf et al.
# Submitted via: CDex 1.40Beta4
#
DISCID=a20e070b
DTITLE=Damon Fowler Group - Roots And Branches
DYEAR=2001
DGENRE=Blues
TTITLE0=You're Gonna Do Me Wrong
TTITLE1=Didn't Seem To Miss Me
TTITLE2=I Do What I Have To Do
TTITLE3=Tall
TTITLE4=Jack
TTITLE5=River Cong
TTITLE6=Stirling
TTITLE7=Red-Headed Woman
TTITLE8=Pride
TTITLE9=Sugar Lee
TTITLE10=The Last One
EXTD=YEAR: 2001 ID3G:   0
EXTT0=
EXTT1=
EXTT2=
EXTT3=
EXTT4=
EXTT5=
EXTT6=
EXTT7=
EXTT8=
EXTT9=
EXTT10=
PLAYORDER=
